<?xml version="1.0" encoding="UTF-8"?>
<svg xmlns="http://www.w3.org/2000/svg" xmlns:svg="http://www.w3.org/2000/svg" xmlns:rdf="http://www.w3.org/1999/02/22-rdf-syntax-ns#" xmlns:dc="http://purl.org/dc/elements/1.1/" xmlns:cc="http://creativecommons.org/ns#" version="1.1" viewBox="0 0 393.3 275">
  <defs>
    <style>
      .cls-1 {
        fill: #f5a615;
      }
    </style>
  </defs>
  <!-- Generator: Adobe Illustrator 28.6.0, SVG Export Plug-In . SVG Version: 1.2.0 Build 709)  -->
  <g>
    <g id="svg2440">
      <g id="g1174">
        <g id="g1176">
          <g id="g1182">
            <path id="path1184" class="cls-1" d="M60.5,137.4c-.3,36.7,13.8,71.3,39.6,97.3,25.8,26,60.2,40.3,97,40.3,75.8,0,137.8-61.7,138.3-137.4.3-36.7-13.8-71.3-39.6-97.3C270,14.3,235.6,0,198.9,0,123.1,0,61,61.6,60.5,137.4M117.4,217.6c-21.2-21.3-32.8-49.8-32.6-80,.5-62.5,51.6-113.3,114.1-113.3s58.5,11.8,79.7,33.1c21.2,21.4,32.8,49.8,32.6,80-.4,62.5-51.6,113.3-114.1,113.3s-58.6-11.8-79.8-33.1"/>
          </g>
          <g id="g1186">
            <path id="path1188" class="cls-1" d="M40.9,252.6C-28.9,169.1,3,72.7,45.1,20.5l25.1,20.6c-34.6,42.9-60.9,122.2-3.5,190.8"/>
          </g>
          <g id="g1190">
            <path id="path1192" class="cls-1" d="M350.9,252.6c71-83.4,40.4-179.9-1-232.1l-25.4,20.6c34,42.9,59.2,122.2.8,190.8"/>
          </g>
          <g id="g1194">
            <path id="path1196" class="cls-1" d="M119.2,159.7l-4.5,15h-14l23.8-79.1h19.9l23.5,79.1h-13.7l-4.6-15h-30.5ZM134.7,107.2h-.2l-12.2,41h24.4"/>
          </g>
          <g id="g1198">
            <path id="path1200" class="cls-1" d="M171.8,174.7l.3-79.1h35.1c13.8,0,20.8,3.2,20.7,20.6,0,9.1-1.6,15.2-10.1,17.5v.4c9.9,1.3,11.7,8.6,11.6,18.6,0,17.5-6.5,22-21.3,22h-36.3ZM185.4,161.7h18.5c8.1,0,11.9-.6,12-10.3,0-8.7-1.6-11.2-9.6-11.2h-20.8s0,21.5,0,21.5ZM185.5,128.7h19.5c7.6,0,9.3-2.7,9.3-11.1,0-8.4-3-9.1-9.6-9.1h-19.1"/>
          </g>
          <g id="g1202">
            <path id="path1204" class="cls-1" d="M248,149.5v3.7c0,9.1,3.4,9.7,15.9,9.7s14-2.5,14.1-11.7c0-11.3-5.3-9.8-15.9-10.4-15.2-1.1-27.3-.4-27.2-23.4.1-21.7,12.3-22.3,29.2-22.3s26.2.5,26.1,21.3v2.5h-13.6v-2.5c0-8.5-3.1-8.9-12.5-8.9-13.5,0-15.6,1.5-15.7,9.9,0,9.7,1.7,10,15.5,11,21.7,1.5,27.6,2.8,27.5,22.9,0,22.2-9.5,24.1-27.7,24.1s-29.5.5-29.4-22.1v-3.7"/>
          </g>
        </g>
      </g>
    </g>
  </g>
</svg>