<?xml version="1.0" encoding="UTF-8"?>
<svg id="Layer_2" xmlns="http://www.w3.org/2000/svg" viewBox="0 0 466.51 562.61">
  <defs>
    <style>
      .cls-1 {
        fill: #fbb217;
      }
    </style>
  </defs>
  <g id="Layer_1-2" data-name="Layer_1">
    <path class="cls-1" d="M349.81,280.7c-18.6-9.02-38.12-14.73-58.58-18.27v234.2h31.02v65.98H0v-65.82h31.04V0h260v228.91c12.27,2.87,24.24,5.14,35.88,8.53,11.55,3.37,22.78,7.87,33.93,11.79,7.65-15.4,15.53-31.26,23.63-47.57-4.41-3.49-9.32-7.36-14.21-11.25-10.36-8.25-15.71-18.89-15.22-32.24.31-8.4,4.89-14.46,12.35-15.68,2.39-.39,5.37.1,7.47,1.27,6.57,3.65,13.14,7.43,19.18,11.87,21.85,16.08,41.86,34.35,61.7,52.79.61.57,1.18,1.32,1.46,2.09,5.7,16.21,10.29,32.66,9.1,50.1-.22,3.24-.98,6.51-2.01,9.6-2.73,8.22-9.02,11.99-17.21,13.64-14.36,2.89-27.36-2.06-34.79-13.86-.83-1.31-1.2-3.25-1.01-4.8,1.43-11.6,2.86-23.21,4.71-34.75.75-4.71-3.02-5.39-5.48-7.92-1.4,2.45-2.81,4.6-3.9,6.9-5.52,11.7-10.94,23.44-16.44,35.15-.66,1.41-.7,2.33.75,3.37,25.65,18.39,42.16,43.38,52.91,72.71,6.77,18.48,12.31,37.23,14.7,56.79,4.56,37.4-1.56,72.59-21.98,104.76-9.49,14.96-23.68,20.71-40.65,19.54-23.78-1.65-40.42-15.04-52.85-34.36-9.32-14.48-13.99-30.67-16.41-47.57-3.25-22.73-1.5-45.33,1.93-67.88,4.65-30.51,11.37-60.53,20.9-89.91.11-.35.18-.72.33-1.33ZM253.93,56.82H69.53v122.77h184.4V56.82ZM378.1,298.94c-.46,1.44-.81,2.5-1.13,3.57-8.52,28.36-14.51,57.25-18.13,86.64-2.16,17.56-2.59,35.09.76,52.55,2.41,12.57,6.63,24.43,14.91,34.46,5.63,6.82,12.44,11.99,21.42,13.31,7.59,1.11,11.19-.37,14.74-6.2,11.45-18.81,17.08-39.22,17.38-61.11.3-22.11-4.41-43.35-11.94-64.02-5.26-14.45-10.9-28.73-20.47-41.05-5.1-6.57-10.74-12.6-17.54-18.15Z"/>
  </g>
</svg>